<?xml version="1.0" encoding="UTF-8"?>
<svg id="Layer_1" data-name="Layer 1" xmlns="http://www.w3.org/2000/svg" viewBox="0 0 1439.7 2094.71">
  <defs>
    <style>
      .cls-1 {
        fill: #f5d2cc;
      }

      .cls-2 {
        fill: #f3c2c5;
      }

      .cls-3 {
        fill: #eec8cb;
      }

      .cls-4 {
        fill: #e9c9c4;
      }

      .cls-5 {
        fill: #fdfdfd;
      }

      .cls-6 {
        fill: #fdf4e8;
      }

      .cls-7 {
        fill: #404443;
      }

      .cls-8 {
        fill: #1c1a1b;
      }

      .cls-9 {
        fill: #363434;
      }

      .cls-10 {
        fill: #342c2b;
      }
    </style>
  </defs>
  <path class="cls-8" d="M209.84,1758.51c65.63-14.13,126.22-27.17,186.81-40.21-28.36-9.44-56.11-11.76-84.17-5.81-17.63,3.74-29.13-1.18-39.97-18.07-85.11-132.51-171.6-264.15-257.69-396.03-27.24-41.72-17.07-68.19,31.85-80.07,25.35-6.16,50.81-2.71,75.7,3.96,107.19,28.75,193.31,93.01,275.5,163.79,8.64,7.44,17.04,15.14,28.6,25.45,25.94-71.96,46.67-143.33,84.69-206.2,29.37-48.58,28.47-95.29,17.54-148.22-29.97-145.23-61.3-290.55-82.02-437.26C400.59,293.36,644.91,2.81,949.36,.02c222.31-2.04,413.01,161.97,454.04,385.81,7.14,38.93,10.68,78.1,9.76,117.56-.2,8.51-.16,15.55,4.68,22.72,25.68,38,23.24,76.24-.29,114.04-6.34,10.19-8.44,20.2-8.53,32.43-1.52,227.35-3.78,454.69-5.75,682.04-.33,38.4,5.18,76.3,10.29,114.26,6.85,50.84,8.96,101.71-5.77,151.76-2.59,8.79-5.2,14.81,2.22,24.72,47.25,63.12,37.43,150.09-24.75,205.47-16.18,14.41-16.28,27.03-14.47,45.13,3.24,32.32,20.83,61.7,18.49,94.83-.68,9.58,6.5,23.37-6.47,27.58-12.63,4.1-26.79,5.84-39.54-4.78-13.26-11.04-27.68-20.99-42.59-29.69-45.09-26.3-91.33-40.72-146.25-41.91-137.75-2.98-273.68,3.35-406.82,40.44-46.51,12.96-92.78,26.57-121.95,72.29-14.45,22.66-42.1,32.34-68.63,38.02-27.65,5.92-52.29-.93-64.26-28.43-30.52-70.1-59.37-141.19-46.18-220.24,3.04-18.25-3.56-19.67-17.76-18.51-82.87,6.78-160.58,33.76-238.06,61.24-6.48,2.3-11.35,11.03-15.51,17.69-18.56,29.76-42.84,50.21-80.02,43.05-36.27-6.98-57.38-32.81-70.77-65.57-21.26-52.02-8.78-105.35-4.77-158.09,1.65-21.72,6.23-43.92,13.67-64.37,22.82-62.76,103.46-75.25,146.73-24.43,29.23,34.33,36.25,73.99,29.73,123.41ZM1152.83,507.95c2.11-7.3-.78-12.08-7.53-14.92l.22,.91c-5.77-17.25-11.84-34.41-17.25-51.77-17.82-57.21-52.07-95.78-115.01-102.21-1.85-29.44,41.91-29.43,39.33-59.88-.02-.27,11.65-3.77,16.17-1.82,35.33,15.26,77.41,19.22,99.12,57.9,13.34,23.77,27.03,47.35,40.56,71.01-8.06-61.15-28-114.77-86.05-144.56-10.33-5.3-23.44-10.7-16.64-25.41,6.44-13.92,19.93-9.02,30.51-5.29,23.56,8.32,41.48,23.96,57.18,43.56,33.59,41.94,45.26,93.08,62.78,141.88,9.32,25.97,17.11,52.6,40.79,70.91,25.76,19.93,53.67,.71,80.56,4.7,7.83,1.16,5.81-26.86,4.01-40.75-16.87-130.24-63.39-245.35-170.86-328.9-96.44-74.97-204.73-103.66-325.5-84.92-110.9,17.2-203.18,68.73-276.65,152.99-111.48,127.87-153.63,276.75-127.04,443.69,17.02,106.87,38.44,213.04,58.41,319.43,8.32,44.3,17.98,88.35,28.09,137.65,51.17-78.64,102.44-148.14,177.1-198.26-41.18-24.24-80.79-49.84-112.23-82.69-82.49-86.19-111.82-192.27-99.9-309.83,2.47-24.35,5.4-49.13,40.73-54.23,25.21-3.64,43.35-24.29,57.97-46.63,29.09-44.48,57.97-89.32,90.43-131.33,29.67-38.4,62.21-75,114.55-84.77,23.05-4.3,41.37,.95,54.61,19.32,6.12,8.49,7.11,21.08-1.8,28.77-7.41,6.4-15.85,.41-21.08-6.02-12.55-15.41-26.87-10.03-40.9-4.05-17.15,7.32-31.45,18.81-45.26,31.42-47.74,43.55-78.14,100.03-114.91,151.77-23.34,32.84-42.95,69.47-89.1,76.28-12.72,1.87-19.24,11.62-17.73,25.64,1.55,14.5,9.11,24.76,23.01,26.68,18.83,2.6,38.1-.95,50.72-16.1,38.92-46.74,79.79-91.91,114.23-142.35,27.49-40.26,65.54-68.55,110.57-86.65,41.42-16.65,70.43-4.3,77.26,31.05-24.23,9.13-47.07-17.32-72.98-.66-33.05,21.26-68.42,39.53-89.35,74.31-14.48,24.06-29.39,50.52-44.17,71.47-16.21,22.97-39.45,47.83-62.55,69.04-39.95,36.69-66.33,53.8-107.6,48.03,1.65,39.07,10.19,73.89,28.3,106.3,14.45,40.7,39.2,74.26,69.51,103.99,4.5,4.42,8.38,9.41,11.89,14.65,.89,1.33,1.87,2.53,3.06,3.49,205.14,165.19,481.33,100.2,609.53-121.89,11.81-20.45,20.96-33.78,49.88-31.15,35.61,3.24,66.8-31.51,70.78-68.44,3.39-31.52-12.62-57.53-40.02-65.02-31.19-8.53-64.66,11.85-81.78,49.77-.48,1.05-1.18,2.07-1.39,3.17-5.03,25.8-18.9,23.29-38.03,13.9-16.83-8.26-30.57-27.1-53.39-18.84-.39-3.43-.78-6.85-1.16-10.28-.46-19.55-8.82-33.79-27.62-41.01l.53,.84c6.55-9.56,1.4-13.17-7.55-14.85l.67,.94Zm81.97,1043.72c-4.47-62.5-8.7-122.51-13.08-182.51-1-13.72,.77-28.5,16.03-30.31,19.35-2.29,16.28,15.75,17.03,27.34,3.74,57.84,6.66,115.73,10.02,173.59,.73,12.57-1.65,26.73,9.07,36.02,19.83,17.18,45.31,29.29,49.07,59.75,.25,2.01,6.12,5.56,7.29,4.87,15.9-9.41,39.95-5.43,46.27-30.94,6.21-25.09,8.85-50.16,7.43-75.74-6.22-111.73-29.5-219.57-70.94-323.79-42.49-106.86-90.17-210.66-163.9-300.23-22.38-27.19-53.98-24.49-73.3,5.84-27.38,43-66.49,70.49-113.25,87.66-62.96,23.12-124.65,3.75-155.96-47.62-17.92-29.39-36.64-34.67-64.62-15.08-15.98,11.19-30.5,25.11-43.56,39.7-113.21,126.44-188.92,273.71-240.41,434.38-5.05,15.76-4.07,28.19,8.6,40.78,30.49,30.3,56.66,64.27,80.71,99.93,3.51,5.2,5.44,18.4,16.99,11.23,31.63-19.61,65.43-34.52,99.91-48.11,10.28-4.05,6.82-13.46,8.12-20.9,16-91.18,31.89-182.37,47.82-273.57,2.31-13.21,1.29-32.34,20.9-28.59,16.34,3.12,11.02,19.65,8.86,32.27-13.68,79.83-26.83,159.75-40.76,239.54-6.99,40.03-7.7,39.21,30.81,31.95,49-9.24,98.46-15.89,148.39-16.54,119.53-1.55,234.95,18.77,346.47,69.09Zm112.99,420.78c-3.4-31.23-6.16-58.31-9.39-85.34-1.33-11.15-11.28-9.55-18.77-11.39-41.06-10.04-57.8-40.01-62.42-78.46-4.73-39.39,6.09-75.39,26.06-109.47,18.35-31.32,12.31-55.8-16.92-76.82-25.46-18.31-52.63-33.58-81.73-45.4-121.09-49.18-247.45-58.54-375.53-44.74-86.66,9.34-171.31,28.89-241.63,86.29-15.51,12.66-22.85,3.27-32.32-10.25-95.37-136.29-214.8-245.39-365.73-317.88-31.51-15.14-64.99-24.66-100.29-25.58-11.51-.3-26.41-1.1-32.04,8.77-5.1,8.95,6.41,18.51,12.02,27.1,79.72,122.17,159.78,244.12,238.84,366.72,10.67,16.54,20.83,23.46,41.6,21.2,70.17-7.64,135.75,9.41,197.31,42.93,32.88,17.9,90.62,32.99,128.24,33.59,106.62,1.7,207.99,30.18,308.87,60.92,131.6,40.09,260.28,87.48,383.84,157.83Zm22.54-705.44l5.16-1.04c0-181.97,.02-363.93-.02-545.9,0-37.63-18.15-48.53-49.98-28.7-8.23,5.12-14.38,15.18-18.98,24.24-26.22,51.69-65.87,92.52-111.09,126.24-36.9,27.51-34.88,29.56-6.2,67.5,48.4,64.03,85.54,134.44,118.23,207.25,22.25,49.56,41.99,100.24,62.87,150.41ZM44.18,1788.97c-3.8,41.11-2.65,81.32,28.4,113.37,24.01,24.77,48.39,22.17,70.64-4.15,32.72-38.72,34.79-86.17,37.98-132.74,2.41-35.19,7.19-71.31-17.42-103.16-15.63-20.23-33.29-30.95-59.07-27.53-26.59,3.53-40.34,19.95-46.72,44.48-9.36,35.98-12.41,72.72-13.81,109.73Zm570.87,165.97c6.15-29.18-4.3-57.24-6.98-85.9-3.44-36.79-40.61-73.09-71.1-74.6-27.95-1.38-52.33,25.67-60.08,69.86-10.27,58.52,13.74,111.22,31.24,164.71,6.24,19.09,16.56,35.44,41.38,35.42,26.39-.02,42.32-12.8,52.89-35.78,10.81-23.52,16.93-47.57,12.65-73.71Zm30.17-55.04c77.27-36.79,159.76-53.87,251.89-66.04-71.99-39.74-240.79-61.26-290.56-41.19,27.73,35.62,27.95,36.23,38.67,107.23Zm757.33-174.53c-1.26-23.33-4.61-46.37-27.72-59.49-14.58-8.28-28.09-.96-37.52,9.28-35.23,38.26-55.17,82.35-42.15,135.47,9.33,38.08,37.58,45.78,66.83,18.74,30.08-27.8,38.28-64.67,40.56-104ZM830.37,924.35c14.69,39.22,36.96,55.17,74.2,56.57,46.87,1.76,98.03-23.11,112.84-56.18-61.59,11.53-122.43,11.96-187.04-.39Zm267.05-596.79c12.72,36.14,47.68,52.88,55,86.51,9.51,43.7,35.25,79.3,55.66,117.65,4.97,9.33,10.45,12.09,18.93,7.1,8.74-5.15,8.74-12.03,2.62-20.19-33.45-44.67-51.98-97.38-78.08-146.02-11.18-20.84-23.67-39.28-54.13-45.04Zm-476.55,242.24-10.61,5.03"/>
  <path class="cls-5" d="M1234.8,1551.67c-111.51-50.32-226.94-70.64-346.47-69.09-49.93,.65-99.39,7.3-148.39,16.54-38.5,7.26-37.79,8.09-30.81-31.95,13.93-79.79,27.08-159.71,40.76-239.54,2.16-12.62,7.48-29.14-8.86-32.27-19.61-3.75-18.6,15.38-20.9,28.59-15.92,91.19-31.82,182.39-47.82,273.57-1.3,7.44,2.15,16.85-8.12,20.9-34.48,13.59-68.28,28.5-99.91,48.11-11.55,7.16-13.48-6.03-16.99-11.23-24.05-35.66-50.22-69.63-80.71-99.93-12.67-12.59-13.65-25.03-8.6-40.78,51.49-160.66,127.2-307.94,240.41-434.38,13.06-14.59,27.58-28.51,43.56-39.7,27.98-19.6,46.7-14.31,64.62,15.08,31.32,51.37,93,70.73,155.96,47.62,46.77-17.17,85.87-44.66,113.25-87.66,19.32-30.34,50.92-33.03,73.3-5.84,73.73,89.57,121.41,193.37,163.9,300.23,41.44,104.23,64.72,212.06,70.94,323.79,1.42,25.59-1.21,50.65-7.43,75.74-6.32,25.51-30.37,21.53-46.27,30.94-1.17,.69-7.04-2.86-7.29-4.87-3.77-30.46-29.24-42.57-49.07-59.75-10.72-9.29-8.34-23.45-9.07-36.02-3.36-57.86-6.27-115.76-10.02-173.59-.75-11.59,2.32-29.63-17.03-27.34-15.26,1.81-17.03,16.59-16.03,30.31,4.37,60,8.61,120.01,13.08,182.51Z"/>
  <path class="cls-6" d="M1347.79,1972.44c-123.57-70.34-252.24-117.73-383.84-157.83-100.88-30.73-202.26-59.22-308.87-60.92-37.63-.6-95.36-15.68-128.24-33.59-61.57-33.52-127.15-50.57-197.31-42.93-20.78,2.26-30.94-4.66-41.6-21.2-79.06-122.6-159.12-244.55-238.84-366.72-5.61-8.6-17.12-18.15-12.02-27.1,5.63-9.87,20.53-9.07,32.04-8.77,35.3,.92,68.78,10.45,100.29,25.58,150.93,72.49,270.36,181.58,365.73,317.88,9.46,13.52,16.81,22.91,32.32,10.25,70.33-57.4,154.97-76.95,241.63-86.29,128.08-13.8,254.44-4.44,375.53,44.74,29.1,11.82,56.27,27.1,81.73,45.4,29.23,21.02,35.27,45.5,16.92,76.82-19.97,34.08-30.79,70.09-26.06,109.47,4.62,38.45,21.36,68.42,62.42,78.46,7.49,1.83,17.44,.23,18.77,11.39,3.23,27.03,5.99,54.11,9.39,85.34Z"/>
  <path class="cls-9" d="M936.3,320.18c-6.84-35.35-35.84-47.71-77.26-31.05-45.03,18.11-83.08,46.4-110.57,86.65-34.44,50.44-75.31,95.61-114.23,142.35-12.61,15.15-31.89,18.69-50.72,16.1-13.9-1.92-21.46-12.19-23.01-26.68-1.5-14.02,5.01-23.77,17.73-25.64,46.15-6.8,65.76-43.44,89.1-76.28,36.77-51.73,67.17-108.21,114.91-151.77,13.82-12.6,28.11-24.1,45.26-31.42,14.03-5.99,28.34-11.37,40.9,4.05,5.23,6.43,13.67,12.42,21.08,6.02,8.91-7.7,7.91-20.29,1.8-28.77-13.24-18.37-31.56-23.62-54.61-19.32-52.33,9.77-84.88,46.38-114.55,84.77-32.45,42-61.33,86.84-90.43,131.33-14.61,22.34-32.75,42.99-57.97,46.63-35.33,5.1-38.26,29.88-40.73,54.23-11.92,117.56,17.41,223.63,99.9,309.83,31.44,32.86,71.05,58.45,112.23,82.69-74.66,50.12-125.92,119.62-177.1,198.26-10.11-49.3-19.77-93.35-28.09-137.65-19.97-106.39-41.39-212.56-58.41-319.43-26.59-166.94,15.56-315.82,127.04-443.69,73.46-84.26,165.74-135.79,276.65-152.99,120.77-18.73,229.05,9.95,325.5,84.92,107.47,83.55,153.99,198.66,170.86,328.9,1.8,13.89,3.82,41.91-4.01,40.75-26.89-3.98-54.79,15.24-80.56-4.7-23.67-18.31-31.47-44.94-40.79-70.91-17.52-48.8-29.19-99.94-62.78-141.88-15.7-19.6-33.62-35.24-57.18-43.56-10.58-3.74-24.08-8.63-30.51,5.29-6.8,14.7,6.3,20.1,16.64,25.41,58.04,29.78,77.99,83.4,86.05,144.56-13.53-23.66-27.22-47.24-40.56-71.01-21.71-38.68-63.79-42.64-99.12-57.9-4.51-1.95-16.19,1.55-16.17,1.82,2.57,30.45-41.19,30.44-39.34,59.88-11.15,9.01-22.24,16.94-37.09,6.51-13.02-9.15-26.57-17.56-39.88-26.3Z"/>
  <path class="cls-1" d="M1187.98,572.31c22.82-8.25,36.55,10.58,53.39,18.84,19.13,9.39,33,11.9,38.03-13.9,.22-1.11,.92-2.12,1.39-3.17,17.12-37.92,50.6-58.3,81.78-49.77,27.4,7.49,43.41,33.51,40.02,65.02-3.97,36.93-35.16,71.68-70.78,68.44-28.92-2.63-38.07,10.69-49.88,31.15-128.2,222.09-404.39,287.07-609.53,121.89-3.04-2.52-5.69-6.82-8.17-10.54,13.55-15.73,27.95,2.52,42.5-.92,32.58-7.7,60.72-32.99,55.57-97,39.74-17.45,68.05-44.22,80.5-87.84,8.82-30.9,38.73-27.93,63.06-29.4,21.94-1.33,29.37,12.66,34.34,33.71,17.45,73.91,63.48,101.28,141.68,87.84,5.82,9.88,10.11,21.23,17.8,29.35,15.56,16.42,29.72,34.02,58.92,24.11,31.24-10.6,45.89-32.38,46.48-61.25,.64-31.54-25.92-49.34-46.88-68.78,4.94-21.82,4.23-46.55,29.77-57.77Zm-258.24,145.39c-5.54-11.84-11.99-24.19-29.03-22.13-16.33,1.97-27.53,10.3-27.83,28.56-.29,17.21,10.69,26.36,25.34,25.84,17.48-.62,28.23-12.8,31.52-32.27Z"/>
  <path class="cls-1" d="M936.04,305.21c1.82-.52,3.76-.28,5.35,.75,15.5,9.98,31.2,19.66,46.34,30.15,17.27,11.98,30.39,3.96,43.36-6.2,1.37-1.07,3.11-1.57,4.83-1.38,75.44,8.58,116.71,54.94,138.3,123.33,4.25,13.48,8.85,26.85,13.46,40.21,2.2,6.37-5.15,11.7-10.45,7.59-32.83-25.52-68.15-44.29-114.64-32.92-64.33,15.73-98.64,59.34-117.08,119.4-2.89,9.4,2.73,33.88-22.55,25.02-31.77-11.14-134.51,131.62-226.89,137.11-2.73,.16-5.25-1.42-6.42-3.92-18.8-40.16-53.41-53.29-95.58-53.49-2.4-.01-4.61-1.35-5.79-3.46-31.19-55.87-27.35-80.58,20.65-124.07,28.32-25.66,56.82-55.73,76.69-83.51,18.13-25.34,36.4-57.35,54.16-86.45,25.67-42.07,69.03-64.16,109.56-89.88,30.77-19.52,58.01,9.89,86.7,1.71Zm-156.74,304.13c.28-1.14,1.46-5.15,1.13-6.27-4.75-16.06,4.8-38.55-17.37-38.77-24.26-.24-23.4,22.05-22.65,39.18,.78,17.81-.71,42.69,24.6,41.77,20.61-.75,10.4-19.93,14.29-35.91Z"/>
  <path class="cls-9" d="M1369.96,1266.13c-20.75-49.88-40.39-100.26-62.51-149.53-32.69-72.81-69.83-143.22-118.23-207.25-28.68-37.94-30.71-39.99,6.2-67.5,45.22-33.71,84.88-74.55,111.09-126.24,4.6-9.06,10.75-19.12,18.98-24.24,31.83-19.82,49.97-8.93,49.98,28.7,.04,181.97,.02,363.93,.02,545.9-1.84,.05-3.68,.1-5.53,.16Z"/>
  <path class="cls-5" d="M44.2,1788.94c1.38-36.99,4.43-73.73,13.79-109.71,6.38-24.53,20.12-40.95,46.72-44.48,25.78-3.42,43.44,7.3,59.07,27.53,24.61,31.85,19.83,67.97,17.42,103.16-3.18,46.56-5.25,94.02-37.98,132.74-22.25,26.32-46.63,28.92-70.64,4.15-31.06-32.05-32.2-72.26-28.38-113.39Z"/>
  <path class="cls-5" d="M615.05,1954.93c4.28,26.14-1.84,50.19-12.65,73.71-10.57,22.98-26.49,35.76-52.89,35.78-24.82,.02-35.14-16.33-41.38-35.42-17.5-53.48-41.51-106.18-31.24-164.71,7.75-44.19,32.13-71.24,60.08-69.86,30.49,1.5,67.66,37.81,71.1,74.6,2.68,28.66,13.13,56.72,6.98,85.9Z"/>
  <path class="cls-5" d="M645.21,1899.89c-10.72-71-10.94-71.61-38.67-107.23,49.77-20.07,218.57,1.45,290.56,41.19-92.13,12.16-174.62,29.24-251.89,66.04Z"/>
  <path class="cls-2" d="M645.64,656.21c28.46,41.72,69.76,51,116.66,46.14,5.15,64.02-22.99,89.31-55.58,97-14.55,3.44-28.95-14.81-42.5,.92-33.67-31.47-60.68-67.62-76.29-111.59,16.29-13.96,32.58-27.92,48.87-41.88,2.94,3.14,5.89,6.28,8.83,9.42Z"/>
  <path class="cls-4" d="M1402.55,1725.37c-2.27,39.33-10.48,76.21-40.56,104-29.25,27.03-57.5,19.34-66.83-18.74-13.02-53.12,6.92-97.21,42.15-135.47,9.43-10.24,22.94-17.56,37.52-9.28,23.1,13.12,26.46,36.16,27.72,59.49Z"/>
  <path class="cls-4" d="M830.37,924.35c64.61,12.35,125.45,11.92,187.04,.39-14.81,33.07-65.97,57.94-112.84,56.18-37.24-1.4-59.51-17.35-74.2-56.57Z"/>
  <path class="cls-9" d="M1097.42,327.55c30.46,5.76,42.95,24.2,54.13,45.04,26.1,48.64,44.63,101.35,78.08,146.02,6.12,8.17,6.12,15.05-2.62,20.19-8.48,4.99-13.97,2.24-18.93-7.1-20.41-38.35-46.15-73.94-55.66-117.65-7.31-33.62-42.28-50.37-55-86.51Z"/>
  <path class="cls-1" d="M623.53,644.2c-11.58,16.64-23.16,33.27-34.73,49.91-17.34-34.92-27.34-73.16-32.28-116.59,33.17,3.7,57.35,20.15,67.02,66.68Z"/>
  <path class="cls-2" d="M734.56,687.36c-32.86,5.55-53.86-15.59-76.15-33.81-2.13-4.59-4.27-9.18-6.4-13.76,36.96-.5,67.17,10.69,82.55,47.58Z"/>
  <path class="cls-4" d="M1186.81,562.03c-8-.49-21.38,13.74-21.25-8.88,.06-10.7-4.12-21.42-6.37-32.13,18.8,7.22,27.16,21.46,27.62,41.01Z"/>
  <path class="cls-4" d="M1159.71,521.86c-6.92-2.71-6.69-9.05-7.55-14.85,8.95,1.68,14.1,5.29,7.55,14.85Z"/>
  <path class="cls-4" d="M1152.83,507.95c-7.01-2.7-8.09-8.4-7.53-14.92,6.74,2.84,9.64,7.61,7.53,14.92Z"/>
  <path class="cls-10" d="M929.73,717.69c-3.29,19.47-14.04,31.64-31.52,32.27-14.65,.52-25.63-8.63-25.34-25.84,.3-18.26,11.5-26.6,27.83-28.56,17.04-2.05,23.49,10.3,29.03,22.13Zm-14.33,3.83c-.35-6.57-3.89-11.48-12.14-12.08-9.5-.7-15.49,3.77-16.6,13.25-.9,7.71,2.22,13.7,10.84,13.96,9.19,.27,14.53-5.33,17.9-15.12Z"/>
  <path class="cls-9" d="M703.34,539.23c23.05-21.74,44.83-18.37,65.41,2.73-21.76-.84-43.23-8.79-65.41-2.73Z"/>
  <path class="cls-8" d="M790.95,478.01c-.51,3.71-1.03,7.42-1.54,11.13-16.77-8.65-33.68-16.96-51.9-23.86,20.6-9.19,37.4-.19,53.44,12.73Z"/>
  <path class="cls-1" d="M1212.19,568.85c.48,83.19-64.43,148.24-148.9,149.22-75.11,.86-132.26-53.35-132.64-125.82-.41-78.94,70.4-148.08,151.91-148.33,70.93-.22,129.23,55.97,129.63,124.93Zm-156.45,42.4c-1.2-17.93-.59-39.07-23.18-39.99-21.38-.87-24.22,20.09-22.24,35.34,2.08,15.96-2.69,41.89,24.79,40.82,21.7-.84,19.83-21.02,20.62-36.17Zm-41.42-71.95c22.84-10.15,43.44-.71,67.94,8.52-24.18-32.12-38.82-33.84-67.94-8.52Z"/>
  <path class="cls-4" d="M915.41,721.52c-3.38,9.79-8.71,15.4-17.9,15.12-8.62-.26-11.73-6.25-10.84-13.96,1.1-9.48,7.09-13.94,16.6-13.25,8.26,.6,11.8,5.51,12.14,12.08Z"/>
  <path class="cls-9" d="M1014.32,539.3c29.11-25.32,43.75-23.6,67.94,8.52-24.49-9.23-45.1-18.67-67.94-8.52Z"/>
  <path class="cls-7" d="M949.75,825.39c-12.02,1.44-21.67,2.69-35.25-4.44,18.22-9.01,33.12-6.34,47.86-5.62-.27,7.54-5.71,8.05-12.61,10.06Z"/>
  <g>
    <path class="cls-8" d="M1164.16,576.45c-1.83-60.73-41.61-111.84-96.27-118.87-29.94-3.85-59.76,5.92-83.97,27.52-24,21.4-39.62,51.9-43.99,85.88-.39,3-.67,5.99-.88,8.98-28.13-15.56-76.51,2.14-94.98,9.96,.15-2.62,.24-5.26,.24-7.92,0-67.66-50.45-122.7-112.46-122.7s-112.46,55.04-112.46,122.7c0,4.06,.19,8.07,.54,12.03l-64.54-27.46-4.15,9.75,70.35,29.94c10.35,56.08,55.85,98.45,110.25,98.45s102.15-44.5,110.95-102.66c21.06-9.85,74.36-28.48,95.93-9.41,.47,26.32,8.04,51.51,22.04,72.57,17.97,27.01,44.35,44,74.28,47.85,4.27,.55,8.53,.82,12.78,.82,25.54,0,50.43-9.82,71.19-28.34,24-21.4,39.62-51.9,43.99-85.88,.49-3.84,.82-7.66,1.02-11.45l48.16-22.52-4.49-9.6-43.55,20.36Zm-432.3,117.66c-56.17,0-101.87-50.29-101.87-112.11s45.7-112.11,101.87-112.11,101.87,50.29,101.87,112.11-45.7,112.11-101.87,112.11Zm420.65-95.81c-4.04,31.45-18.44,59.62-40.53,79.33-21.89,19.52-48.72,28.37-75.57,24.92-26.84-3.45-50.57-18.8-66.81-43.21-16.4-24.65-23.2-55.55-19.16-87,4.04-31.45,18.44-59.62,40.53-79.33,18.79-16.75,41.22-25.65,64.18-25.65,3.79,0,7.59,.24,11.39,.73,55.71,7.16,94.28,65.57,85.97,130.21Z"/>
    <rect class="cls-8" x="1209.04" y="551.25" width="20.72" height="10.46" transform="translate(-120.96 562.99) rotate(-24.81)"/>
  </g>
  <rect class="cls-8" x="740.14" y="564.29" width="44.5" height="80.96" rx="21.92" ry="21.92"/>
  <rect class="cls-8" x="1010.52" y="568.86" width="44.5" height="80.96" rx="21.92" ry="21.92" transform="translate(-35.84 65.3) rotate(-3.56)"/>
  <path class="cls-3" d="M1083.43,709.97c33.74-17.64,59.11-41,72.48-78.7,36.8,11.5,55.56,32.2,53.13,61.67-3.49,42.46-30.15,67.04-67.82,80.35-43.8-10.57-51.76-19.11-57.8-63.32Z"/>
</svg>