<svg width="1440" height="2095" viewBox="0 0 1440 2095" fill="none" xmlns="http://www.w3.org/2000/svg">
<g clip-path="url(#clip0_1_2)">
<path d="M209.84 1758.51C275.47 1744.38 336.06 1731.34 396.65 1718.3C368.29 1708.86 340.54 1706.54 312.48 1712.49C294.85 1716.23 283.35 1711.31 272.51 1694.42C187.4 1561.91 100.91 1430.27 14.8199 1298.39C-12.4201 1256.67 -2.25005 1230.2 46.6699 1218.32C72.0199 1212.16 97.4799 1215.61 122.37 1222.28C229.56 1251.03 315.68 1315.29 397.87 1386.07C406.51 1393.51 414.91 1401.21 426.47 1411.52C452.41 1339.56 473.14 1268.19 511.16 1205.32C540.53 1156.74 539.63 1110.03 528.7 1057.1C498.73 911.87 467.4 766.55 446.68 619.84C400.59 293.36 644.91 2.81004 949.36 0.0200421C1171.67 -2.01996 1362.37 161.99 1403.4 385.83C1410.54 424.76 1414.08 463.93 1413.16 503.39C1412.96 511.9 1413 518.94 1417.84 526.11C1443.52 564.11 1441.08 602.35 1417.55 640.15C1411.21 650.34 1409.11 660.35 1409.02 672.58C1407.5 899.93 1405.24 1127.27 1403.27 1354.62C1402.94 1393.02 1408.45 1430.92 1413.56 1468.88C1420.41 1519.72 1422.52 1570.59 1407.79 1620.64C1405.2 1629.43 1402.59 1635.45 1410.01 1645.36C1457.26 1708.48 1447.44 1795.45 1385.26 1850.83C1369.08 1865.24 1368.98 1877.86 1370.79 1895.96C1374.03 1928.28 1391.62 1957.66 1389.28 1990.79C1388.6 2000.37 1395.78 2014.16 1382.81 2018.37C1370.18 2022.47 1356.02 2024.21 1343.27 2013.59C1330.01 2002.55 1315.59 1992.6 1300.68 1983.9C1255.59 1957.6 1209.35 1943.18 1154.43 1941.99C1016.68 1939.01 880.75 1945.34 747.61 1982.43C701.1 1995.39 654.83 2009 625.66 2054.72C611.21 2077.38 583.56 2087.06 557.03 2092.74C529.38 2098.66 504.74 2091.81 492.77 2064.31C462.25 1994.21 433.4 1923.12 446.59 1844.07C449.63 1825.82 443.03 1824.4 428.83 1825.56C345.96 1832.34 268.25 1859.32 190.77 1886.8C184.29 1889.1 179.42 1897.83 175.26 1904.49C156.7 1934.25 132.42 1954.7 95.2399 1947.54C58.9699 1940.56 37.8599 1914.73 24.4699 1881.97C3.20995 1829.95 15.6899 1776.62 19.6999 1723.88C21.3499 1702.16 25.9299 1679.96 33.3699 1659.51C56.1899 1596.75 136.83 1584.26 180.1 1635.08C209.33 1669.41 216.35 1709.07 209.83 1758.49L209.84 1758.51ZM620.87 569.8L610.26 574.83Z" fill="#EEEEEE"/>
</g>
<defs>
<clipPath id="clip0_1_2">
<rect width="1439.7" height="2094.71" fill="white"/>
</clipPath>
</defs>
</svg>
