<svg width="813" height="600" viewBox="0 0 813 600" fill="none" xmlns="http://www.w3.org/2000/svg">
<g id="turntable">
<path id="path14" d="M800 -3.12924e-05H0V600H800V-3.12924e-05Z" fill="#F6F6F6"/>
<g id="turn-part">
<path id="path16" d="M613.333 300C613.333 454.64 487.973 580 333.333 580C178.693 580 53.3333 454.64 53.3333 300C53.3333 145.36 178.693 20 333.333 20C487.973 20 613.333 145.36 613.333 300Z" fill="#A3A1A1"/>
<path id="path20" d="M586.667 300C586.667 439.912 473.245 553.333 333.333 553.333C193.421 553.333 80 439.912 80 300C80 160.088 193.421 46.6667 333.333 46.6667C473.245 46.6667 586.667 160.088 586.667 300Z" fill="#222326"/>
<path id="path22" d="M170.501 494.056C192.916 512.884 218.632 527.908 246.667 538.115C273.705 547.959 302.891 553.333 333.333 553.333C363.776 553.333 392.961 547.959 420 538.115C448.035 527.908 473.751 512.884 496.165 494.056L333.333 300L170.501 494.056ZM496.165 105.944L333.333 300L170.501 105.944C192.916 87.116 218.631 72.0907 246.667 61.8853C273.705 52.0413 302.891 46.6667 333.333 46.6667C363.776 46.6667 392.961 52.0413 420 61.8853C448.035 72.0907 473.751 87.116 496.165 105.944Z" fill="#303235"/>
<path id="path24" d="M333.333 300L267.752 544.753C288.669 550.345 310.652 553.333 333.333 553.333C356.015 553.333 377.997 550.345 398.915 544.753L333.333 300ZM398.915 55.2467L333.333 300L267.752 55.2467C288.669 49.6547 310.652 46.6667 333.333 46.6667C356.015 46.6667 377.997 49.6547 398.915 55.2467Z" fill="#45474D"/>
<path id="path26" d="M333.333 93.112C219.255 93.112 126.445 185.921 126.445 300C126.445 414.08 219.255 506.889 333.333 506.889C447.413 506.889 540.223 414.08 540.223 300C540.223 185.921 447.413 93.112 333.333 93.112ZM333.333 510.889C217.049 510.889 122.445 416.285 122.445 300C122.445 183.716 217.049 89.112 333.333 89.112C449.619 89.112 544.223 183.716 544.223 300C544.223 416.285 449.619 510.889 333.333 510.889" fill="#100F11"/>
<path id="path28" d="M333.333 137.555C243.761 137.555 170.889 210.428 170.889 300C170.889 389.572 243.761 462.444 333.333 462.444C422.905 462.444 495.777 389.572 495.777 300C495.777 210.428 422.905 137.555 333.333 137.555ZM333.333 466.444C241.556 466.444 166.888 391.777 166.888 300C166.888 208.223 241.556 133.555 333.333 133.555C425.111 133.555 499.777 208.223 499.777 300C499.777 391.777 425.111 466.444 333.333 466.444Z" fill="#100F11"/>
<path id="path30" d="M453.333 300C453.333 366.275 399.608 420 333.333 420C267.059 420 213.333 366.275 213.333 300C213.333 233.725 267.059 180 333.333 180C399.608 180 453.333 233.725 453.333 300Z" fill="#100F11"/>
<path id="path32" d="M420 300C420 347.864 381.197 386.667 333.333 386.667C285.469 386.667 246.667 347.864 246.667 300C246.667 252.136 285.469 213.333 333.333 213.333C381.197 213.333 420 252.136 420 300Z" fill="#E84F57"/>
<path id="path34" d="M333.333 310C327.811 310 323.333 305.523 323.333 300V306.667C323.333 312.189 327.811 316.667 333.333 316.667C338.856 316.667 343.333 312.189 343.333 306.667V300C343.333 305.523 338.856 310 333.333 310Z" fill="#AC2F37"/>
<path id="path36" d="M343.333 300C343.333 305.523 338.856 310 333.333 310C327.811 310 323.333 305.523 323.333 300C323.333 294.477 327.811 290 333.333 290C338.856 290 343.333 294.477 343.333 300Z" fill="#F6F6F6"/>
</g>
<path id="path38" d="M740 126.667C740 163.485 710.153 193.333 673.333 193.333C636.515 193.333 606.667 163.485 606.667 126.667C606.667 89.848 636.515 60 673.333 60C710.153 60 740 89.848 740 126.667Z" fill="#222326"/>
<path id="path46" d="M684.983 130.684C699.696 89.1467 714.264 47.544 719.751 31.8534C720.967 28.376 719.132 24.5734 715.655 23.3587L707.211 20.4107C703.736 19.1974 699.939 21.024 698.723 24.4974C693.313 39.96 678.739 81.572 664.041 123.061L684.983 130.684" fill="#A3A1A1"/>
<path id="path48" d="M722.983 35.452C722.983 35.452 703.707 28.116 694.696 24.6853C691.188 23.3493 687.279 25.176 686.039 28.7187L671.537 70.0933C670.308 73.5013 672.027 77.2667 675.405 78.5733L703.653 89.492C707.143 90.8413 711.059 89.0546 712.328 85.536L726.917 43.8627C728.095 40.4573 726.352 36.7307 722.983 35.452" fill="#45474D"/>
<path id="path50" d="M683.392 36.272L676.959 54.624L717.644 70.3494L724.144 51.7827C712.299 47.276 696.523 41.272 683.392 36.272Z" fill="#CCCBCB"/>
<path id="path52" d="M706.667 126.667C706.667 145.076 691.743 160 673.333 160C654.924 160 640 145.076 640 126.667C640 108.257 654.924 93.3333 673.333 93.3333C691.743 93.3333 706.667 108.257 706.667 126.667Z" fill="#CCCBCB"/>
<path id="path54" d="M651.805 101.227C647.259 105.079 643.761 110.127 641.793 115.885L664.977 139.281L664.984 139.275C667.6 141.813 671.361 143.177 675.425 142.489C680.352 141.655 684.412 137.699 685.156 132.757C685.516 130.368 685.333 127.804 685.333 127.804L651.805 101.227Z" fill="#A3A1A1"/>
<path id="path56" d="M681.941 118.316L681.948 118.311L647.613 83.6627C645.011 81.06 640.789 81.06 638.185 83.6627L630.643 91.2054C628.04 93.8094 628.04 98.0307 630.643 100.633L664.977 135.281L664.984 135.275C667.6 137.813 671.361 139.177 675.425 138.489C680.352 137.655 684.323 133.684 685.156 128.757C685.844 124.693 684.48 120.933 681.941 118.316" fill="#F6F6F6"/>
<path id="path58" d="M719.615 159.171C719.615 164.693 715.139 169.171 709.615 169.171C704.092 169.171 699.615 164.693 699.615 159.171C699.615 153.648 704.092 149.171 709.615 149.171C715.139 149.171 719.615 153.648 719.615 159.171Z" fill="#CCCBCB"/>
<g id="turn-bar">
<path id="path42" d="M629.077 543.937L607.233 522.282L601.6 527.965L623.445 549.619C625.014 551.174 627.546 551.163 629.102 549.594C630.657 548.025 630.646 545.492 629.077 543.937Z" fill="#A3A1A1"/>
<path id="path44" d="M684.612 155.381L662.335 155.264C662.324 157.125 660.86 367.127 659.192 397.854C657.71 425.15 657.71 425.15 603.553 495.053C601.763 497.364 602.186 500.688 604.497 502.479L613.741 509.639C616.052 511.428 619.375 511.007 621.163 508.697C677.385 436.13 679.579 433.297 681.437 399.063C683.135 367.794 684.572 163.007 684.612 155.381Z" fill="#A3A1A1"/>
<path id="path60" d="M619.664 517.597C619.57 517.693 589.389 547.868 589.389 547.868C587.254 549.951 583.823 549.856 581.787 547.672L565.37 529.996C563.406 527.878 563.484 524.579 565.555 522.569C565.555 522.569 595.319 492.903 595.426 492.809C602.277 486.138 613.224 486.254 619.913 493.081C626.612 499.922 626.505 510.897 619.664 517.597" fill="#45474D"/>
</g>
<path id="path62" d="M100 540C100 558.409 85.076 573.333 66.6667 573.333C48.2573 573.333 33.3333 558.409 33.3333 540C33.3333 521.591 48.2573 506.667 66.6667 506.667C85.076 506.667 100 521.591 100 540Z" fill="#E0E0E0"/>
<path id="path64" d="M100 533.333C100 551.743 85.076 566.667 66.6667 566.667C48.2573 566.667 33.3333 551.743 33.3333 533.333C33.3333 514.924 48.2573 500 66.6667 500C85.076 500 100 514.924 100 533.333Z" fill="#A3A1A1"/>
<path id="path66" d="M93.3333 533.333C93.3333 548.061 81.3943 560 66.6667 560C51.9391 560 40 548.061 40 533.333C40 518.605 51.9391 506.667 66.6667 506.667C81.3943 506.667 93.3333 518.605 93.3333 533.333Z" fill="#CCCBCB"/>
<path id="path68" d="M73.3333 520.222C73.3333 523.904 70.3484 526.889 66.6667 526.889C62.9849 526.889 60 523.904 60 520.222C60 516.541 62.9849 513.556 66.6667 513.556C70.3484 513.556 73.3333 516.541 73.3333 520.222Z" fill="#A3A1A1"/>
<path id="path70" d="M86.1057 93.3333H46.1057C42.424 93.3333 39.4391 90.348 39.4391 86.6667V46.6667C39.4391 42.9853 42.424 40 46.1057 40H86.1057C89.7875 40 92.7724 42.9853 92.7724 46.6667V86.6667C92.7724 90.348 89.7875 93.3333 86.1057 93.3333Z" fill="#E0E0E0"/>
<path id="path72" d="M86.1057 86.6667H46.1057C42.424 86.6667 39.4391 83.6814 39.4391 80V40C39.4391 36.3187 42.424 33.3334 46.1057 33.3334H86.1057C89.7875 33.3334 92.7724 36.3187 92.7724 40V80C92.7724 83.6814 89.7875 86.6667 86.1057 86.6667Z" fill="#A3A1A1"/>
<path id="path74" d="M79.4391 80H52.7724C49.0907 80 46.1057 77.0147 46.1057 73.3333V46.6667C46.1057 42.9853 49.0907 40 52.7724 40H79.4391C83.1208 40 86.1057 42.9853 86.1057 46.6667V73.3333C86.1057 77.0147 83.1208 80 79.4391 80Z" fill="#CCCBCB"/>
<path id="path76" d="M753.375 566.667H713.375C709.693 566.667 706.708 563.681 706.708 560V306.667C706.708 302.985 709.693 300 713.375 300H753.375C757.057 300 760.041 302.985 760.041 306.667V560C760.041 563.681 757.057 566.667 753.375 566.667Z" fill="#A3A1A1"/>
<path id="path78" d="M753.375 300H713.375C709.693 300 706.708 302.985 706.708 306.667V310.667C706.708 306.985 709.693 304 713.375 304H753.375C757.057 304 760.041 306.985 760.041 310.667V306.667C760.041 302.985 757.057 300 753.375 300Z" fill="#6F7374"/>
<path id="path82" d="M738.708 540H728.041V326.667H738.708V540Z" fill="#222326"/>
<g id="volumn">
<path id="path84" d="M746.708 399H720.041C716.36 399 713.375 396.015 713.375 392.333V365.667C713.375 361.985 716.36 359 720.041 359H746.708C750.391 359 753.375 361.985 753.375 365.667V392.333C753.375 396.015 750.391 399 746.708 399Z" fill="#F6F6F6"/>
<path id="path86" d="M740.041 393.333H726.708C723.027 393.333 720.041 390.348 720.041 386.667V373.333C720.041 369.652 723.027 366.667 726.708 366.667H740.041C743.724 366.667 746.708 369.652 746.708 373.333V386.667C746.708 390.348 743.724 393.333 740.041 393.333Z" fill="#E0E0E0"/>
</g>
</g>
</svg>
